{"timestamp": "2025-12-23T16:40:57.609951", "filename": "Xi Jinping\u2019s paranoid approach to AGI, debt crisis, & Politburo politics \u2014 Victor Shih [b1TeeIG6Uaw].webm", "s3_uri": "s3://aissemble-transcribe/input/20251223-163546_Xi_Jinping_s_paranoid_approach_to_AGI_debt_crisis_Politburo_politics_Victor_Shih_b1TeeIG6Uaw.wav", "audio_processing": {"total_processing_time_seconds": 77.908, "input_metadata": {"format": {"filename": "/var/folders/yp/w9n05llx4cs2m5fqg0qfd2sw0000gp/T/tmpjxx4adwo.webm", "nb_streams": 2, "nb_programs": 0, "nb_stream_groups": 0, "format_name": "matroska,webm", "format_long_name": "Matroska / WebM", "start_time": "0.000000", "duration": "5396.848000", "size": "1820598071", "bit_rate": "2698757", "probe_score": 100, "tags": {"COMPATIBLE_BRANDS": "iso6av01mp41", "MAJOR_BRAND": "dash", "MINOR_VERSION": "0", "ENCODER": "Lavf62.3.100"}}, "streams": [{"index": 0, "codec_name": "av1", "codec_long_name": "Alliance for Open Media AV1", "profile": "Main", "codec_type": "video", "codec_tag_string": "[0][0][0][0]", "codec_tag": "0x0000", "width": 3840, "height": 2160, "coded_width": 3840, "coded_height": 2160, "has_b_frames": 0, "sample_aspect_ratio": "1:1", "display_aspect_ratio": "16:9", "pix_fmt": "yuv420p", "level": 12, "color_range": "tv", "color_space": "bt709", "color_transfer": "bt709", "color_primaries": "bt709", "refs": 1, "r_frame_rate": "24000/1001", "avg_frame_rate": "24000/1001", "time_base": "1/1000", "start_pts": 0, "start_time": "0.000000", "extradata_size": 21, "disposition": {"default": 1, "dub": 0, "original": 0, "comment": 0, "lyrics": 0, "karaoke": 0, "forced": 0, "hearing_impaired": 0, "visual_impaired": 0, "clean_effects": 0, "attached_pic": 0, "timed_thumbnails": 0, "non_diegetic": 0, "captions": 0, "descriptions": 0, "metadata": 0, "dependent": 0, "still_image": 0, "multilayer": 0}, "tags": {"HANDLER_NAME": "ISO Media file produced by Google Inc.", "VENDOR_ID": "[0][0][0][0]", "DURATION": "01:29:56.808000000"}}, {"index": 1, "codec_name": "opus", "codec_long_name": "Opus (Opus Interactive Audio Codec)", "codec_type": "audio", "codec_tag_string": "[0][0][0][0]", "codec_tag": "0x0000", "sample_fmt": "fltp", "sample_rate": "48000", "channels": 2, "channel_layout": "stereo", "bits_per_sample": 0, "initial_padding": 312, "r_frame_rate": "0/0", "avg_frame_rate": "0/0", "time_base": "1/1000", "start_pts": 0, "start_time": "0.000000", "extradata_size": 19, "disposition": {"default": 1, "dub": 0, "original": 0, "comment": 0, "lyrics": 0, "karaoke": 0, "forced": 0, "hearing_impaired": 0, "visual_impaired": 0, "clean_effects": 0, "attached_pic": 0, "timed_thumbnails": 0, "non_diegetic": 0, "captions": 0, "descriptions": 0, "metadata": 0, "dependent": 0, "still_image": 0, "multilayer": 0}, "tags": {"language": "eng", "DURATION": "01:29:56.848000000"}}]}, "ffmpeg_conversion_time_seconds": 7.821, "s3_upload_time_seconds": 69.904, "s3_upload_speed_mbps": 2.36, "input_file_size_mb": 1736.26, "output_file_size_mb": 164.7, "size_reduction_percent": 90.51}, "transcription": {"s3_uri": "s3://aissemble-transcribe/input/20251223-163546_Xi_Jinping_s_paranoid_approach_to_AGI_debt_crisis_Politburo_politics_Victor_Shih_b1TeeIG6Uaw.wav", "success": true, "s3_output_uri": "s3://aissemble-transcribe/output/20251223-163546_Xi_Jinping_s_paranoid_approach_to_AGI_debt_crisis_Politburo_politics_Victor_Shih_b1TeeIG6Uaw_transcription.json", "error": null}, "total_pipeline_seconds": 321.549}
{"timestamp": "2025-12-23T16:44:10.271074", "filename": "House Hearing on the Role of Special Operations in Great Power Competition [mAvYNdTxAdc].mp3", "s3_uri": "s3://aissemble-transcribe/input/20251223-164100_House_Hearing_on_the_Role_of_Special_Operations_in_Great_Power_Competition_mAvYNdTxAdc.wav", "audio_processing": {"total_processing_time_seconds": 8.815, "input_metadata": {"format": {"filename": "/var/folders/yp/w9n05llx4cs2m5fqg0qfd2sw0000gp/T/tmptxtw9rx5.mp3", "nb_streams": 2, "nb_programs": 0, "nb_stream_groups": 0, "format_name": "mp3", "format_long_name": "MP2/3 (MPEG audio layer 2/3)", "start_time": "0.025056", "duration": "3954.009977", "size": "38157235", "bit_rate": "77202", "probe_score": 51, "tags": {"title": "House Hearing on the Role of Special Operations in Great Power Competition", "artist": "The Union Herald", "album": "House Hearing on the Role of Special Operations in Great Power Competition", "TOPE": "The Union Herald", "comment": "", "genre": "Music", "date": "2025"}}, "streams": [{"index": 0, "codec_name": "mp3", "codec_long_name": "MP3 (MPEG audio layer 3)", "codec_type": "audio", "codec_tag_string": "[0][0][0][0]", "codec_tag": "0x0000", "sample_fmt": "fltp", "sample_rate": "44100", "channels": 2, "channel_layout": "stereo", "bits_per_sample": 0, "initial_padding": 0, "r_frame_rate": "0/0", "avg_frame_rate": "0/0", "time_base": "1/14112000", "start_pts": 353600, "start_time": "0.025057", "duration_ts": 55798988800, "duration": "3954.009977", "bit_rate": "76762", "disposition": {"default": 0, "dub": 0, "original": 0, "comment": 0, "lyrics": 0, "karaoke": 0, "forced": 0, "hearing_impaired": 0, "visual_impaired": 0, "clean_effects": 0, "attached_pic": 0, "timed_thumbnails": 0, "non_diegetic": 0, "captions": 0, "descriptions": 0, "metadata": 0, "dependent": 0, "still_image": 0, "multilayer": 0}, "tags": {"encoder": "Lavc59.37"}}, {"index": 1, "codec_name": "png", "codec_long_name": "PNG (Portable Network Graphics) image", "codec_type": "video", "codec_tag_string": "[0][0][0][0]", "codec_tag": "0x0000", "width": 500, "height": 500, "coded_width": 500, "coded_height": 500, "has_b_frames": 0, "sample_aspect_ratio": "1:1", "display_aspect_ratio": "1:1", "pix_fmt": "rgba", "level": -99, "color_range": "pc", "color_space": "gbr", "refs": 1, "r_frame_rate": "90000/1", "avg_frame_rate": "0/0", "time_base": "1/90000", "start_pts": 2255, "start_time": "0.025056", "duration_ts": 355860898, "duration": "3954.009978", "disposition": {"default": 0, "dub": 0, "original": 0, "comment": 0, "lyrics": 0, "karaoke": 0, "forced": 0, "hearing_impaired": 0, "visual_impaired": 0, "clean_effects": 0, "attached_pic": 1, "timed_thumbnails": 0, "non_diegetic": 0, "captions": 0, "descriptions": 0, "metadata": 0, "dependent": 0, "still_image": 0, "multilayer": 0}, "tags": {"title": "cover", "comment": "Cover (front)"}}]}, "ffmpeg_conversion_time_seconds": 2.357, "s3_upload_time_seconds": 6.299, "s3_upload_speed_mbps": 19.16, "input_file_size_mb": 36.39, "output_file_size_mb": 120.67, "size_reduction_percent": -231.6}, "transcription": {"s3_uri": "s3://aissemble-transcribe/input/20251223-164100_House_Hearing_on_the_Role_of_Special_Operations_in_Great_Power_Competition_mAvYNdTxAdc.wav", "success": true, "s3_output_uri": "s3://aissemble-transcribe/output/20251223-164100_House_Hearing_on_the_Role_of_Special_Operations_in_Great_Power_Competition_mAvYNdTxAdc_transcription.json", "error": null}, "total_pipeline_seconds": 192.661}
{"timestamp": "2025-12-23T16:54:01.300581", "filename": "Learning AI Series \u2014 Transformers, Attention & Embeddings\uff1a The Engineering Deep Dive \ud83d\udcbb [4-gT1iJ2B88].webm", "s3_uri": "s3://aissemble-transcribe/input/20251223-164429_Learning_AI_Series_Transformers_Attention_Embeddings_The_Engineering_Deep_Dive_4-gT1iJ2B88.wav", "audio_processing": {"total_processing_time_seconds": 34.055, "input_metadata": {"format": {"filename": "/var/folders/yp/w9n05llx4cs2m5fqg0qfd2sw0000gp/T/tmp5rd9qm3w.webm", "nb_streams": 2, "nb_programs": 0, "nb_stream_groups": 0, "format_name": "matroska,webm", "format_long_name": "Matroska / WebM", "start_time": "0.000000", "duration": "13991.348000", "size": "955872387", "bit_rate": "546550", "probe_score": 100, "tags": {"ENCODER": "Lavf62.3.100"}}, "streams": [{"index": 0, "codec_name": "vp9", "codec_long_name": "Google VP9", "profile": "Profile 0", "codec_type": "video", "codec_tag_string": "[0][0][0][0]", "codec_tag": "0x0000", "width": 1920, "height": 1080, "coded_width": 1920, "coded_height": 1080, "has_b_frames": 0, "sample_aspect_ratio": "1:1", "display_aspect_ratio": "16:9", "pix_fmt": "yuv420p", "level": -99, "color_range": "tv", "color_space": "bt709", "color_transfer": "bt709", "color_primaries": "bt709", "refs": 1, "r_frame_rate": "30/1", "avg_frame_rate": "30/1", "time_base": "1/1000", "start_pts": 0, "start_time": "0.000000", "disposition": {"default": 1, "dub": 0, "original": 0, "comment": 0, "lyrics": 0, "karaoke": 0, "forced": 0, "hearing_impaired": 0, "visual_impaired": 0, "clean_effects": 0, "attached_pic": 0, "timed_thumbnails": 0, "non_diegetic": 0, "captions": 0, "descriptions": 0, "metadata": 0, "dependent": 0, "still_image": 0, "multilayer": 0}, "tags": {"language": "eng", "DURATION": "03:53:11.299000000"}}, {"index": 1, "codec_name": "opus", "codec_long_name": "Opus (Opus Interactive Audio Codec)", "codec_type": "audio", "codec_tag_string": "[0][0][0][0]", "codec_tag": "0x0000", "sample_fmt": "fltp", "sample_rate": "48000", "channels": 2, "channel_layout": "stereo", "bits_per_sample": 0, "initial_padding": 312, "r_frame_rate": "0/0", "avg_frame_rate": "0/0", "time_base": "1/1000", "start_pts": 0, "start_time": "0.000000", "extradata_size": 19, "disposition": {"default": 1, "dub": 0, "original": 0, "comment": 0, "lyrics": 0, "karaoke": 0, "forced": 0, "hearing_impaired": 0, "visual_impaired": 0, "clean_effects": 0, "attached_pic": 0, "timed_thumbnails": 0, "non_diegetic": 0, "captions": 0, "descriptions": 0, "metadata": 0, "dependent": 0, "still_image": 0, "multilayer": 0}, "tags": {"language": "eng", "DURATION": "03:53:11.348000000"}}]}, "ffmpeg_conversion_time_seconds": 17.734, "s3_upload_time_seconds": 16.224, "s3_upload_speed_mbps": 26.32, "input_file_size_mb": 911.59, "output_file_size_mb": 426.98, "size_reduction_percent": 53.16}, "transcription": {"s3_uri": "s3://aissemble-transcribe/input/20251223-164429_Learning_AI_Series_Transformers_Attention_Embeddings_The_Engineering_Deep_Dive_4-gT1iJ2B88.wav", "success": true, "s3_output_uri": "s3://aissemble-transcribe/output/20251223-164429_Learning_AI_Series_Transformers_Attention_Embeddings_The_Engineering_Deep_Dive_4-gT1iJ2B88_transcription.json", "error": null}, "total_pipeline_seconds": 591.027}
{"timestamp": "2025-12-23T16:56:16.175202", "filename": "aiSSEMBLE Daily Standup-20251219_110209-Meeting Recording.mp4", "s3_uri": "s3://aissemble-transcribe/input/20251223-165401_aiSSEMBLE_Daily_Standup-20251219_110209-Meeting_Recording.wav", "audio_processing": {"total_processing_time_seconds": 62.795, "input_metadata": {"format": {"filename": "/var/folders/yp/w9n05llx4cs2m5fqg0qfd2sw0000gp/T/tmpf56o1g50.mp4", "nb_streams": 2, "nb_programs": 0, "nb_stream_groups": 0, "format_name": "mov,mp4,m4a,3gp,3g2,mj2", "format_long_name": "QuickTime / MOV", "start_time": "0.000000", "duration": "1137.216500", "size": "153352533", "bit_rate": "1078792", "probe_score": 100, "tags": {"major_brand": "isom", "minor_version": "512", "compatible_brands": "isomiso2", "creation_time": "2025-12-19T16:02:15.000000Z"}}, "streams": [{"index": 0, "codec_name": "h264", "codec_long_name": "H.264 / AVC / MPEG-4 AVC / MPEG-4 part 10", "profile": "Constrained Baseline", "codec_type": "video", "codec_tag_string": "avc1", "codec_tag": "0x31637661", "width": 1920, "height": 1080, "coded_width": 1920, "coded_height": 1080, "has_b_frames": 0, "pix_fmt": "yuv420p", "level": 40, "chroma_location": "left", "field_order": "progressive", "refs": 1, "is_avc": "true", "nal_length_size": "4", "id": "0x2", "r_frame_rate": "16/1", "avg_frame_rate": "36392000/2274433", "time_base": "1/10000", "start_pts": 0, "start_time": "0.000000", "duration_ts": 11372165, "duration": "1137.216500", "bit_rate": "1006028", "bits_per_raw_sample": "8", "nb_frames": "18196", "extradata_size": 38, "disposition": {"default": 1, "dub": 0, "original": 0, "comment": 0, "lyrics": 0, "karaoke": 0, "forced": 0, "hearing_impaired": 0, "visual_impaired": 0, "clean_effects": 0, "attached_pic": 0, "timed_thumbnails": 0, "non_diegetic": 0, "captions": 0, "descriptions": 0, "metadata": 0, "dependent": 0, "still_image": 0, "multilayer": 0}, "tags": {"creation_time": "2025-12-19T16:02:15.000000Z", "language": "eng", "vendor_id": "[0][0][0][0]"}}, {"index": 1, "codec_name": "aac", "codec_long_name": "AAC (Advanced Audio Coding)", "profile": "LC", "codec_type": "audio", "codec_tag_string": "mp4a", "codec_tag": "0x6134706d", "sample_fmt": "fltp", "sample_rate": "16000", "channels": 1, "channel_layout": "mono", "bits_per_sample": 0, "initial_padding": 0, "id": "0x1", "r_frame_rate": "0/0", "avg_frame_rate": "0/0", "time_base": "1/16000", "start_pts": 0, "start_time": "0.000000", "duration_ts": 18195456, "duration": "1137.216000", "bit_rate": "70508", "nb_frames": "17769", "extradata_size": 5, "disposition": {"default": 1, "dub": 0, "original": 0, "comment": 0, "lyrics": 0, "karaoke": 0, "forced": 0, "hearing_impaired": 0, "visual_impaired": 0, "clean_effects": 0, "attached_pic": 0, "timed_thumbnails": 0, "non_diegetic": 0, "captions": 0, "descriptions": 0, "metadata": 0, "dependent": 0, "still_image": 0, "multilayer": 0}, "tags": {"creation_time": "2025-12-19T16:02:15.000000Z", "language": "eng", "vendor_id": "[0][0][0][0]"}}]}, "ffmpeg_conversion_time_seconds": 0.263, "s3_upload_time_seconds": 62.449, "s3_upload_speed_mbps": 0.56, "input_file_size_mb": 146.25, "output_file_size_mb": 34.71, "size_reduction_percent": 76.27}, "transcription": {"s3_uri": "s3://aissemble-transcribe/input/20251223-165401_aiSSEMBLE_Daily_Standup-20251219_110209-Meeting_Recording.wav", "success": true, "s3_output_uri": "s3://aissemble-transcribe/output/20251223-165401_aiSSEMBLE_Daily_Standup-20251219_110209-Meeting_Recording_transcription.json", "error": null}, "total_pipeline_seconds": 134.874}
{"timestamp": "2025-12-23T17:00:39.456032", "filename": "multidisciplinary_perspectives_on_leadership_-_dr._grace_wright,_dr._eric_ruderman,_ashley_diaz-granados,thomas_lahnthaler (240p) 1.mp4", "s3_uri": "s3://aissemble-transcribe/input/20251223-165617_multidisciplinary_perspectives_on_leadership_-_dr_grace_wright_dr_eric_ruderman_ashley_diaz-granados_thomas_lahnthaler_240p_1.wav", "audio_processing": {"total_processing_time_seconds": 165.787, "input_metadata": {"format": {"filename": "/var/folders/yp/w9n05llx4cs2m5fqg0qfd2sw0000gp/T/tmp6w3tfyvd.mp4", "nb_streams": 2, "nb_programs": 0, "nb_stream_groups": 0, "format_name": "mov,mp4,m4a,3gp,3g2,mj2", "format_long_name": "QuickTime / MOV", "start_time": "0.000000", "duration": "1931.241667", "size": "112586333", "bit_rate": "466379", "probe_score": 100, "tags": {"major_brand": "mp42", "minor_version": "0", "compatible_brands": "mp42isomavc1", "creation_time": "2024-11-01T21:16:44.000000Z"}}, "streams": [{"index": 0, "codec_name": "h264", "codec_long_name": "H.264 / AVC / MPEG-4 AVC / MPEG-4 part 10", "profile": "High", "codec_type": "video", "codec_tag_string": "avc1", "codec_tag": "0x31637661", "width": 426, "height": 240, "coded_width": 426, "coded_height": 240, "has_b_frames": 2, "pix_fmt": "yuv420p", "level": 21, "color_range": "tv", "color_space": "smpte170m", "color_transfer": "smpte170m", "color_primaries": "smpte170m", "chroma_location": "left", "field_order": "progressive", "refs": 1, "is_avc": "true", "nal_length_size": "4", "id": "0x1", "r_frame_rate": "30000/1001", "avg_frame_rate": "30000/1001", "time_base": "1/30000", "start_pts": 0, "start_time": "0.000000", "duration_ts": 57935850, "duration": "1931.195000", "bit_rate": "272304", "bits_per_raw_sample": "8", "nb_frames": "57878", "extradata_size": 49, "disposition": {"default": 1, "dub": 0, "original": 0, "comment": 0, "lyrics": 0, "karaoke": 0, "forced": 0, "hearing_impaired": 0, "visual_impaired": 0, "clean_effects": 0, "attached_pic": 0, "timed_thumbnails": 0, "non_diegetic": 0, "captions": 0, "descriptions": 0, "metadata": 0, "dependent": 0, "still_image": 0, "multilayer": 0}, "tags": {"creation_time": "2024-11-01T21:16:44.000000Z", "language": "und", "handler_name": "Vimeo Artax Video Handler", "vendor_id": "[0][0][0][0]", "encoder": "AVC Coding"}}, {"index": 1, "codec_name": "aac", "codec_long_name": "AAC (Advanced Audio Coding)", "profile": "LC", "codec_type": "audio", "codec_tag_string": "mp4a", "codec_tag": "0x6134706d", "sample_fmt": "fltp", "sample_rate": "48000", "channels": 2, "channel_layout": "stereo", "bits_per_sample": 0, "initial_padding": 0, "id": "0x2", "r_frame_rate": "0/0", "avg_frame_rate": "0/0", "time_base": "1/48000", "start_pts": 0, "start_time": "0.000000", "duration_ts": 92699600, "duration": "1931.241667", "bit_rate": "189375", "nb_frames": "90527", "extradata_size": 2, "disposition": {"default": 1, "dub": 0, "original": 0, "comment": 0, "lyrics": 0, "karaoke": 0, "forced": 0, "hearing_impaired": 0, "visual_impaired": 0, "clean_effects": 0, "attached_pic": 0, "timed_thumbnails": 0, "non_diegetic": 0, "captions": 0, "descriptions": 0, "metadata": 0, "dependent": 0, "still_image": 0, "multilayer": 0}, "tags": {"creation_time": "2024-11-01T21:16:44.000000Z", "language": "und", "handler_name": "Vimeo Artax Audio Handler", "vendor_id": "[0][0][0][0]"}}]}, "ffmpeg_conversion_time_seconds": 1.298, "s3_upload_time_seconds": 164.367, "s3_upload_speed_mbps": 0.36, "input_file_size_mb": 107.37, "output_file_size_mb": 58.94, "size_reduction_percent": 45.11}, "transcription": {"s3_uri": "s3://aissemble-transcribe/input/20251223-165617_multidisciplinary_perspectives_on_leadership_-_dr_grace_wright_dr_eric_ruderman_ashley_diaz-granados_thomas_lahnthaler_240p_1.wav", "success": true, "s3_output_uri": "s3://aissemble-transcribe/output/20251223-165617_multidisciplinary_perspectives_on_leadership_-_dr_grace_wright_dr_eric_ruderman_ashley_diaz-granados_thomas_lahnthaler_240p_1_transcription.json", "error": null}, "total_pipeline_seconds": 263.279}
